# AST/ASF file generated using VICON BodyLanguage
# -----------------------------------------------
:version 1.10
:name VICON
:units
  mass 1.0
  length 0.45
  angle deg
:documentation
   .ast/.asf automatically generated from VICON data using
   VICON BodyBuilder and BodyLanguage model FoxedUp or BRILLIANT.MOD
:root
   order TX TY TZ RX RY RZ
   axis XYZ
   position 0 0 0  
   orientation 0 0 0 
:bonedata
  begin
     id 1 
     name lhipjoint
     direction 0.682418 -0.694059 0.22932 
     length 2.25561 
     axis 0 0 0  XYZ
  end
  begin
     id 2 
     name lfemur
     direction 0.34202 -0.939693 0  
     length 6.96448  
     axis 0 0 20  XYZ
    dof rx ry rz
    limits (-160.0 20.0)
           (-70.0 70.0)
           (-60.0 70.0)
  end
  begin
     id 3 
     name ltibia
     direction 0.34202 -0.939693 0   
     length 6.88553   
     axis 0 0 20   XYZ
    dof rx
    limits (-10.0 170.0)
  end
  begin
     id 4 
     name lfoot
     direction 0.0723587 -0.198804 0.977364   
     length 1.88518   
     axis -90 7.62852e-016 20   XYZ
    dof rx rz
    limits (-45.0 90.0)
           (-70.0 20.0)
  end
  begin
     id 5 
     name ltoes
     direction 1.53558e-011 -4.21962e-011 1   
     length 0.952124   
     axis -90 7.62852e-016 20   XYZ
    dof rx
    limits (-90.0 20.0)
  end
  begin
     id 6 
     name rhipjoint
     direction -0.657603 -0.71533 0.236348   
     length 2.18854  
     axis 0 0 0  XYZ 
  end
  begin
     id 7 
     name rfemur
     direction -0.34202 -0.939693 0   
     length 6.86686   
     axis 0 0 -20   XYZ
    dof rx ry rz
    limits (-160.0 20.0)
           (-70.0 70.0)
           (-70.0 60.0)
  end
  begin
     id 8 
     name rtibia
     direction -0.34202 -0.939693 0   
     length 6.59503   
     axis 0 0 -20   XYZ
    dof rx
    limits (-10.0 170.0)
 end
 begin
     id 9 
     name rfoot
     direction -0.101977 -0.280179 0.954516   
     length 1.93723  
     axis -90 -7.62852e-016 -20   XYZ
    dof rx rz
    limits (-45.0 90.0)
           (-20.0 70.0)
  end
  begin
     id 10 
     name rtoes
     direction -1.53564e-011 -4.21897e-011 1   
     length 0.970315   
     axis -90 -7.62852e-016 -20   XYZ
    dof rx
    limits (-90.0 20.0)
  end
  begin
     id 11 
     name lowerback
     direction -0.0339559 0.999421 -0.00235966   
     length 1.88543   
     axis 0 0 0   XYZ
    dof rx ry rz
    limits (-20.0 45.0)
           (-30.0 30.0)
           (-30.0 30.0)
  end
  begin
     id 12 
     name upperback
     direction 0.00401003 0.999739 0.0224689   
     length 1.8856   
     axis 0 0 0   XYZ
    dof rx ry rz
    limits (-20.0 45.0)
           (-30.0 30.0)
           (-30.0 30.0)
  end
  begin
     id 13 
     name thorax
     direction 0.0198619 0.999546 0.0226536   
     length 1.88352   
     axis 0 0 0   XYZ
    dof rx ry rz
    limits (-20.0 45.0)
           (-30.0 30.0)
           (-30.0 30.0)
  end
  begin
     id 14 
     name lowerneck
     direction -0.0461848 0.998632 0.0245198   
     length 1.34895   
     axis 0 0 0   XYZ
    dof rx ry rz
    limits (-20.0 45.0)
           (-30.0 30.0)
           (-30.0 30.0)
  end
  begin
     id 15 
     name upperneck
     direction -0.0180627 0.994724 -0.100984   
     length 1.35214   
     axis 0 0 0   XYZ
    dof rx ry rz
    limits (-20.0 45.0)
           (-30.0 30.0)
           (-30.0 30.0)
  end
  begin
     id 16
     name head
     direction -0.00374772 0.999293 -0.037403  
     length 1.3568  
     axis 0 0 0   XYZ
    dof rx ry rz
    limits (-20.0 45.0)
           (-30.0 30.0)
           (-30.0 30.0)
  end
  begin
     id 17 
     name lclavicle
     direction 0.971773 0.191119 0.138311  
     length 2.84954  
     axis 0 0 0   XYZ
    dof ry rz
    limits (-20.0 10.0)
           (0.0 20.0)
  end
  begin
     id 18 
     name lhumerus
     direction 1 -4.4897e-011 -2.43761e-027   
     length 4.40919   
     axis 180 -30 -90   XYZ
    dof rx ry rz
    limits (-60.0 90.0)
           (-90.0 90.0)
           (-90.0 90.0)
  end
  begin
     id 19
     name lradius
     direction 1 -4.4896e-011 -9.1621e-027   
     length 3.03857   
     axis 180 -30 -90   XYZ
    dof rx
    limits (-10.0 170.0)
  end
  begin
     id 20
     name lwrist
     direction 1 -4.4896e-011 -1.41363e-026   
     length 1.51928   
     axis 1.07133e-014 90 90   XYZ
    dof ry
    limits (-180.0 0.0)
 end
  begin
     id 21 
     name lhand
     direction 1 -4.48978e-011 -2.82725e-026   
     length 0.523208   
     axis 1.80403e-014 90 90   XYZ
    dof rx rz
    limits (-90.0 90.0)
           (-45.0 45.0)
  end
  begin
     id 22 
     name lfingers
     direction 1 -4.48977e-011 -5.6545e-026   
     length 0.421824   
     axis 3.60806e-014 90 90   XYZ
    dof rx
    limits (0.0 90.0)
  end
  begin
     id 23
     name lthumb
     direction 0.707107 -6.34962e-011 0.707107   
     length 0.605657   
     axis -90 45 2.85299e-015   XYZ
    dof rx rz
    limits (-45.0 45.0)
           (-45.0 45.0)
  end
  begin
     id 24 
     name rclavicle
     direction -0.957247 0.24311 0.156766   
     length 3.12406  
     axis 0 0 0   XYZ 
    dof ry rz
    limits (-10.0 20.0)
           (-20.0 0.0)
  end
  begin
     id 25 
     name rhumerus
     direction -1 -4.48964e-011 -1.70632e-027  
     length 4.61969   
     axis 180 30 90   XYZ
    dof rx ry rz
    limits (-90.0 60.0)
           (-90.0 90.0)
           (-90.0 90.0)
  end
  begin
     id 26 
     name rradius
     direction -1 -4.48966e-011 -6.60395e-027   
     length 3.09382   
     axis 180 30 90   XYZ
    dof rx
    limits (-10.0 170.0)
  end
  begin
     id 27 
     name rwrist
     direction -1 -4.48963e-011 -1.41363e-026   
     length 1.54691   
     axis 1.07133e-014 -90 -90   XYZ
    dof ry
    limits (-180.0 0.0)
  end
  begin
     id 28
     name rhand
     direction -1 -4.49013e-011 -2.82725e-026   
     length 0.500896   
     axis 1.80403e-014 -90 -90   XYZ
    dof rx rz
    limits (-90.0 90.0)
           (-45.0 45.0)
  end
  begin
     id 29
     name rfingers
     direction -1 -4.48902e-011 -5.6545e-026   
     length 0.403835   
     axis 3.60806e-014 -90 -90   XYZ
    dof rx
    limits (0.0 90.0)
  end
  begin
     id 30
     name rthumb
     direction -0.707107 -6.34953e-011 0.707107   
     length 0.579829   
     axis -90 -45 -2.85299e-015   XYZ
    dof rx rz
    limits (-45.0 45.0)
           (-45.0 45.0)
  end
:hierarchy
  begin
    root lhipjoint rhipjoint lowerback
    lhipjoint lfemur
    lfemur ltibia
    ltibia lfoot
    lfoot ltoes
    rhipjoint rfemur
    rfemur rtibia
    rtibia rfoot
    rfoot rtoes
    lowerback upperback
    upperback thorax
    thorax lowerneck lclavicle rclavicle
    lowerneck upperneck
    upperneck head
    lclavicle lhumerus
    lhumerus lradius
    lradius lwrist
    lwrist lhand lthumb
    lhand lfingers
    rclavicle rhumerus
    rhumerus rradius
    rradius rwrist
    rwrist rhand rthumb
    rhand rfingers
  end

#!OML:ASF E:\madness\Project 1\Capture day 1\Session 1\Female1.ASF
:FULLY-SPECIFIED
:DEGREES
1
root 17.9891 16.1552 0.455859 -8.02486 -79.5753 15.3597
lowerback -4.40952 -1.18544 -5.60278
upperback -5.2398 -1.57261 0.53411
thorax -2.79397 -0.643096 3.66333
lowerneck 0.0876517 -2.4433 -3.54955
upperneck 7.96241 -3.04956 -4.01319
head 2.48942 -1.78652 -0.740425
rclavicle 5.29264e-015 -9.74045e-015
rhumerus -48.7095 -1.32439 -83.2257
rradius 31.5284
rwrist 11.1475
rhand -7.94888 -50.0908
rfingers 7.12502
rthumb 17.958 -79.2817
lclavicle 5.29264e-015 -9.74045e-015
lhumerus -51.5197 12.9404 78.9529
lradius 40.4971
lwrist -15.6
lhand -19.3237 -15.6419
lfingers 7.12502
lthumb 6.99266 14.2226
rfemur -12.4598 13.5123 15.7561
rtibia 25.2809
rfoot -22.0972 -22.6958
rtoes 11.8483
lfemur -14.3929 -19.9765 -18.9816
ltibia 24.87
lfoot -14.9025 9.04111
ltoes 4.72193
2
root 18.0011 16.1613 0.437371 -7.75338 -79.2722 15.2157
lowerback -4.41786 -1.26393 -5.67618
upperback -5.33209 -1.68073 0.554424
thorax -2.87307 -0.691445 3.72427
lowerneck 0.417284 -2.46059 -3.38137
upperneck 7.86593 -3.08294 -4.31784
head 2.39006 -1.80277 -0.85876
rclavicle -7.28049e-015 -5.96354e-016
rhumerus -48.9174 -0.578823 -83.7341
rradius 31.8001
rwrist 9.63707
rhand -7.72002 -50.5051
rfingers 7.12502
rthumb 18.1782 -79.6756
lclavicle -7.28049e-015 -5.96354e-016
lhumerus -51.9098 12.8438 78.985
lradius 40.9956
lwrist -15.5105
lhand -19.2841 -15.0602
lfingers 7.12502
lthumb 7.03095 14.803
rfemur -12.5986 13.2405 15.7174
rtibia 25.2085
rfoot -21.9574 -22.6819
rtoes 11.2668
lfemur -14.7037 -19.8209 -18.8836
ltibia 25.0306
lfoot -14.9425 8.68158
ltoes 4.11208
3
root 18.0112 16.1624 0.417951 -7.3714 -79.0761 14.8002
lowerback -4.33089 -1.25521 -5.65741
upperback -5.26926 -1.66964 0.556208
thorax -2.85723 -0.686792 3.71689
lowerneck 0.485462 -2.45052 -3.42272
upperneck 7.80105 -3.07638 -4.27906
head 2.35748 -1.79676 -0.83695
rclavicle 3.72721e-014 2.78299e-015
rhumerus -48.8789 -0.0862553 -84.1564
rradius 32.0433
rwrist 8.217
rhand -7.47481 -50.842
rfingers 7.12502
rthumb 18.4141 -79.9905
lclavicle 3.72721e-014 2.78299e-015
lhumerus -51.9906 12.549 79.1601
lradius 41.3965
lwrist -15.3867
lhand -19.3736 -15.5746
lfingers 7.12502
lthumb 6.9445 14.2915
rfemur -12.617 13.1418 15.8092
rtibia 25.262
rfoot -22.0093 -22.6749
rtoes 10.8898
lfemur -14.7922 -19.9249 -18.7426
ltibia 25.0667
lfoot -14.9406 8.53831
ltoes 4.53462
4
root 18.0207 16.1587 0.401294 -7.18361 -78.9919 14.5925
lowerback -4.24223 -1.19495 -5.64262
upperback -5.19156 -1.58872 0.568362
thorax -2.83386 -0.647183 3.72393
lowerneck 0.674761 -2.40839 -3.56966
upperneck 7.52575 -3.04468 -4.11449
head 2.23728 -1.76969 -0.751454
rclavicle -2.08724e-015 1.53064e-014
rhumerus -48.6714 0.447371 -84.5631
rradius 32.0569
rwrist 6.83688
rhand -7.34624 -51.0509
rfingers 7.12502
rthumb 18.5378 -80.1876
lclavicle -2.08724e-015 1.53064e-014
lhumerus -52.0819 12.0956 79.525
lradius 41.9516
lwrist -15.3758
lhand -19.7806 -16.0631
lfingers 7.12502
lthumb 6.55167 13.8156
rfemur -12.6513 13.0171 15.8724
rtibia 25.3045
rfoot -22.005 -22.6033
rtoes 10.4678
lfemur -14.9371 -20.0226 -18.6283
ltibia 25.1379
lfoot -14.8505 8.48666
ltoes 5.16704
5
root 18.0353 16.1545 0.383947 -6.95185 -78.8062 14.4651
lowerback -4.17967 -1.23342 -5.66016
upperback -5.20737 -1.64347 0.590803
thorax -2.8788 -0.671799 3.75757
lowerneck 0.210539 -2.5082 -3.35532
upperneck 7.78428 -3.12279 -4.55304
head 2.39645 -1.82734 -0.941169
rclavicle -1.963e-014 4.96962e-015
rhumerus -48.3339 0.520551 -84.247
rradius 31.8328
rwrist 8.32684
rhand -7.43411 -49.6053
rfingers 7.12502
rthumb 18.4533 -78.75
lclavicle -1.963e-014 4.96962e-015
lhumerus -52.3951 11.7641 79.7704
lradius 42.6794
lwrist -15.5223
lhand -19.8952 -15.5313
lfingers 7.12502
lthumb 6.44098 14.3508
rfemur -12.8196 12.8527 15.8829
rtibia 25.3344
rfoot -21.9348 -22.6608
rtoes 10.1477
lfemur -15.3222 -19.9806 -18.4952
ltibia 25.2649
lfoot -14.6551 8.28367
ltoes 4.53557
6
root 18.0498 16.1553 0.365214 -6.27496 -78.4271 13.907
lowerback -4.1738 -1.3342 -5.58954
upperback -5.22199 -1.7803 0.578225
thorax -2.88439 -0.74249 3.70208
lowerneck 0.189389 -2.50248 -3.33788
upperneck 7.63175 -3.11643 -4.57692
head 2.34904 -1.81914 -0.949106
rclavicle 4.14093e-014 9.74045e-015
rhumerus -48.1949 0.856386 -84.3405
rradius 31.9988
rwrist 8.54707
rhand -8.05095 -49.1099
rfingers 7.12502
rthumb 17.8598 -78.3098
lclavicle 4.14093e-014 9.74045e-015
lhumerus -52.7371 11.3983 79.9057
lradius 43.4496
lwrist -15.554
lhand -19.6052 -14.9712
lfingers 7.12502
lthumb 6.72098 14.9022
rfemur -12.9516 12.7049 15.9902
rtibia 25.3545
rfoot -21.8196 -22.9405
rtoes 9.97438
lfemur -15.7051 -19.8556 -18.3041
ltibia 25.4266
lfoot -14.751 7.88922
ltoes 3.55677
